<svg width="370" height="2104" viewBox="0 0 370 2104" fill="none" xmlns="http://www.w3.org/2000/svg">
<circle cx="50" cy="50" r="50" fill="url(#paint0_radial_27_809)"/>
<g filter="url(#filter0_d_27_809)">
<path d="M35 49.2504C35 35.8053 45.8043 24.8559 59.2483 24.6767L185 23L310.752 24.6767C324.196 24.8559 335 35.8053 335 49.2504V49.2504C335 63.2731 323.286 74.4533 309.278 73.7997L185 68L60.7216 73.7997C46.7142 74.4533 35 63.2731 35 49.2504V49.2504Z" fill="url(#paint1_linear_27_809)"/>
</g>
<circle cx="50" cy="551" r="50" fill="url(#paint2_radial_27_809)"/>
<g filter="url(#filter1_d_27_809)">
<path d="M35 550.25C35 536.805 45.8043 525.856 59.2483 525.677L185 524L310.752 525.677C324.196 525.856 335 536.805 335 550.25V550.25C335 564.273 323.286 575.453 309.278 574.8L185 569L60.7216 574.8C46.7142 575.453 35 564.273 35 550.25V550.25Z" fill="url(#paint3_linear_27_809)"/>
</g>
<circle cx="50" cy="1052" r="50" fill="url(#paint4_radial_27_809)"/>
<g filter="url(#filter2_d_27_809)">
<path d="M35 1051.25C35 1037.81 45.8043 1026.86 59.2483 1026.68L185 1025L310.752 1026.68C324.196 1026.86 335 1037.81 335 1051.25V1051.25C335 1065.27 323.286 1076.45 309.278 1075.8L185 1070L60.7216 1075.8C46.7142 1076.45 35 1065.27 35 1051.25V1051.25Z" fill="url(#paint5_linear_27_809)"/>
</g>
<circle cx="50" cy="1553" r="50" fill="url(#paint6_radial_27_809)"/>
<g filter="url(#filter3_d_27_809)">
<path d="M35 1552.25C35 1538.81 45.8043 1527.86 59.2483 1527.68L185 1526L310.752 1527.68C324.196 1527.86 335 1538.81 335 1552.25V1552.25C335 1566.27 323.286 1577.45 309.278 1576.8L185 1571L60.7216 1576.8C46.7142 1577.45 35 1566.27 35 1552.25V1552.25Z" fill="url(#paint7_linear_27_809)"/>
</g>
<circle cx="50" cy="2054" r="50" fill="url(#paint8_radial_27_809)"/>
<g filter="url(#filter4_d_27_809)">
<path d="M35 2053.25C35 2039.81 45.8043 2028.86 59.2483 2028.68L185 2027L310.752 2028.68C324.196 2028.86 335 2039.81 335 2053.25V2053.25C335 2067.27 323.286 2078.45 309.278 2077.8L185 2072L60.7216 2077.8C46.7142 2078.45 35 2067.27 35 2053.25V2053.25Z" fill="url(#paint9_linear_27_809)"/>
</g>
<defs>
<filter id="filter0_d_27_809" x="25" y="23" width="320" height="70.8269" filterUnits="userSpaceOnUse" color-interpolation-filters="sRGB">
<feFlood flood-opacity="0" result="BackgroundImageFix"/>
<feColorMatrix in="SourceAlpha" type="matrix" values="0 0 0 0 0 0 0 0 0 0 0 0 0 0 0 0 0 0 127 0" result="hardAlpha"/>
<feOffset dy="10"/>
<feGaussianBlur stdDeviation="5"/>
<feComposite in2="hardAlpha" operator="out"/>
<feColorMatrix type="matrix" values="0 0 0 0 0 0 0 0 0 0 0 0 0 0 0 0 0 0 0.3 0"/>
<feBlend mode="normal" in2="BackgroundImageFix" result="effect1_dropShadow_27_809"/>
<feBlend mode="normal" in="SourceGraphic" in2="effect1_dropShadow_27_809" result="shape"/>
</filter>
<filter id="filter1_d_27_809" x="25" y="524" width="320" height="70.8269" filterUnits="userSpaceOnUse" color-interpolation-filters="sRGB">
<feFlood flood-opacity="0" result="BackgroundImageFix"/>
<feColorMatrix in="SourceAlpha" type="matrix" values="0 0 0 0 0 0 0 0 0 0 0 0 0 0 0 0 0 0 127 0" result="hardAlpha"/>
<feOffset dy="10"/>
<feGaussianBlur stdDeviation="5"/>
<feComposite in2="hardAlpha" operator="out"/>
<feColorMatrix type="matrix" values="0 0 0 0 0 0 0 0 0 0 0 0 0 0 0 0 0 0 0.3 0"/>
<feBlend mode="normal" in2="BackgroundImageFix" result="effect1_dropShadow_27_809"/>
<feBlend mode="normal" in="SourceGraphic" in2="effect1_dropShadow_27_809" result="shape"/>
</filter>
<filter id="filter2_d_27_809" x="25" y="1025" width="320" height="70.8269" filterUnits="userSpaceOnUse" color-interpolation-filters="sRGB">
<feFlood flood-opacity="0" result="BackgroundImageFix"/>
<feColorMatrix in="SourceAlpha" type="matrix" values="0 0 0 0 0 0 0 0 0 0 0 0 0 0 0 0 0 0 127 0" result="hardAlpha"/>
<feOffset dy="10"/>
<feGaussianBlur stdDeviation="5"/>
<feComposite in2="hardAlpha" operator="out"/>
<feColorMatrix type="matrix" values="0 0 0 0 0 0 0 0 0 0 0 0 0 0 0 0 0 0 0.3 0"/>
<feBlend mode="normal" in2="BackgroundImageFix" result="effect1_dropShadow_27_809"/>
<feBlend mode="normal" in="SourceGraphic" in2="effect1_dropShadow_27_809" result="shape"/>
</filter>
<filter id="filter3_d_27_809" x="25" y="1526" width="320" height="70.8269" filterUnits="userSpaceOnUse" color-interpolation-filters="sRGB">
<feFlood flood-opacity="0" result="BackgroundImageFix"/>
<feColorMatrix in="SourceAlpha" type="matrix" values="0 0 0 0 0 0 0 0 0 0 0 0 0 0 0 0 0 0 127 0" result="hardAlpha"/>
<feOffset dy="10"/>
<feGaussianBlur stdDeviation="5"/>
<feComposite in2="hardAlpha" operator="out"/>
<feColorMatrix type="matrix" values="0 0 0 0 0 0 0 0 0 0 0 0 0 0 0 0 0 0 0.3 0"/>
<feBlend mode="normal" in2="BackgroundImageFix" result="effect1_dropShadow_27_809"/>
<feBlend mode="normal" in="SourceGraphic" in2="effect1_dropShadow_27_809" result="shape"/>
</filter>
<filter id="filter4_d_27_809" x="25" y="2027" width="320" height="70.8269" filterUnits="userSpaceOnUse" color-interpolation-filters="sRGB">
<feFlood flood-opacity="0" result="BackgroundImageFix"/>
<feColorMatrix in="SourceAlpha" type="matrix" values="0 0 0 0 0 0 0 0 0 0 0 0 0 0 0 0 0 0 127 0" result="hardAlpha"/>
<feOffset dy="10"/>
<feGaussianBlur stdDeviation="5"/>
<feComposite in2="hardAlpha" operator="out"/>
<feColorMatrix type="matrix" values="0 0 0 0 0 0 0 0 0 0 0 0 0 0 0 0 0 0 0.3 0"/>
<feBlend mode="normal" in2="BackgroundImageFix" result="effect1_dropShadow_27_809"/>
<feBlend mode="normal" in="SourceGraphic" in2="effect1_dropShadow_27_809" result="shape"/>
</filter>
<radialGradient id="paint0_radial_27_809" cx="0" cy="0" r="1" gradientUnits="userSpaceOnUse" gradientTransform="translate(50 50) rotate(90) scale(50)">
<stop stop-color="#393939"/>
<stop offset="1" stop-color="#1B1919"/>
</radialGradient>
<linearGradient id="paint1_linear_27_809" x1="185" y1="43" x2="185" y2="99" gradientUnits="userSpaceOnUse">
<stop stop-color="#D0D3DC"/>
<stop offset="1" stop-color="#707176"/>
</linearGradient>
<radialGradient id="paint2_radial_27_809" cx="0" cy="0" r="1" gradientUnits="userSpaceOnUse" gradientTransform="translate(50 551) rotate(90) scale(50)">
<stop stop-color="#393939"/>
<stop offset="1" stop-color="#1B1919"/>
</radialGradient>
<linearGradient id="paint3_linear_27_809" x1="185" y1="544" x2="185" y2="600" gradientUnits="userSpaceOnUse">
<stop stop-color="#D0D3DC"/>
<stop offset="1" stop-color="#707176"/>
</linearGradient>
<radialGradient id="paint4_radial_27_809" cx="0" cy="0" r="1" gradientUnits="userSpaceOnUse" gradientTransform="translate(50 1052) rotate(90) scale(50)">
<stop stop-color="#393939"/>
<stop offset="1" stop-color="#1B1919"/>
</radialGradient>
<linearGradient id="paint5_linear_27_809" x1="185" y1="1045" x2="185" y2="1101" gradientUnits="userSpaceOnUse">
<stop stop-color="#D0D3DC"/>
<stop offset="1" stop-color="#707176"/>
</linearGradient>
<radialGradient id="paint6_radial_27_809" cx="0" cy="0" r="1" gradientUnits="userSpaceOnUse" gradientTransform="translate(50 1553) rotate(90) scale(50)">
<stop stop-color="#393939"/>
<stop offset="1" stop-color="#1B1919"/>
</radialGradient>
<linearGradient id="paint7_linear_27_809" x1="185" y1="1546" x2="185" y2="1602" gradientUnits="userSpaceOnUse">
<stop stop-color="#D0D3DC"/>
<stop offset="1" stop-color="#707176"/>
</linearGradient>
<radialGradient id="paint8_radial_27_809" cx="0" cy="0" r="1" gradientUnits="userSpaceOnUse" gradientTransform="translate(50 2054) rotate(90) scale(50)">
<stop stop-color="#393939"/>
<stop offset="1" stop-color="#1B1919"/>
</radialGradient>
<linearGradient id="paint9_linear_27_809" x1="185" y1="2047" x2="185" y2="2103" gradientUnits="userSpaceOnUse">
<stop stop-color="#D0D3DC"/>
<stop offset="1" stop-color="#707176"/>
</linearGradient>
</defs>
</svg>
